<svg width="100" height="100" viewBox="0 0 100 100" fill="none" xmlns="http://www.w3.org/2000/svg">
  <path d="M50 90C72.0914 90 90 72.0914 90 50C90 27.9086 72.0914 10 50 10C27.9086 10 10 27.9086 10 50C10 72.0914 27.9086 90 50 90Z" fill="#FFD700"/>
  <path d="M50 85C69.33 85 85 69.33 85 50C85 30.67 69.33 15 50 15C30.67 15 15 30.67 15 50C15 69.33 30.67 85 50 85Z" fill="#FFF176"/>
  <path d="M30 35C30 35 40 25 50 25C60 25 70 35 70 35" stroke="#4CAF50" stroke-width="3" stroke-linecap="round"/>
  <path d="M48 20L52 20C52 20 52 15 50 15C48 15 48 20 48 20Z" fill="#4CAF50"/>
  <path d="M45 22C45 22 48 18 50 18C52 18 55 22 55 22" stroke="#4CAF50" stroke-width="2" stroke-linecap="round"/>
</svg> 