<svg width="16" height="16" viewBox="0 0 16 16" fill="none" xmlns="http://www.w3.org/2000/svg">
  <path d="M15.5 2.75C14.9 3.025 14.225 3.2 13.55 3.275C14.225 2.9 14.75 2.3 15.05 1.55C14.375 1.925 13.625 2.15 12.875 2.3C12.275 1.7 11.375 1.325 10.475 1.325C8.675 1.325 7.275 2.725 7.275 4.525C7.275 4.775 7.275 5.025 7.35 5.275C4.7 5.125 2.35 3.875 0.725 1.925C0.475 2.375 0.325 2.9 0.325 3.5C0.325 4.55 0.875 5.525 1.725 6.125C1.2 6.125 0.725 5.975 0.325 5.75V5.825C0.325 7.4 1.425 8.75 2.875 9.025C2.625 9.1 2.375 9.175 2.125 9.175C1.95 9.175 1.775 9.175 1.6 9.1C1.95 10.45 3.15 11.425 4.55 11.425C3.45 12.325 2.05 12.85 0.5 12.85C0.25 12.85 0.075 12.85 -0.1 12.775C1.3 13.75 2.95 14.275 4.775 14.275C10.475 14.275 13.55 9.55 13.55 5.425V5.05C14.225 4.625 14.9 4.125 15.5 3.5V2.75Z" fill="currentColor"/>
</svg> 